<svg xmlns="http://www.w3.org/2000/svg" fill="none" viewBox="0 0 52 52" id="Cyborg-2--Streamline-Flex" height="52" width="52"><desc>Cyborg 2 Streamline Icon: https://streamlinehq.com</desc><g id="cyborg-2--artificial-robotics-intelligence-machine-technology-android"><path id="Union" fill="#000000" fill-rule="evenodd" d="M20.951208571428573 2.8339405714285717c1.3002228571428571 -1.3002005714285714 3.091474285714286 -1.8564 5.04868 -1.8564 1.9571685714285716 0 3.748457142857143 0.5561994285714286 5.048642857142857 1.8564 1.3001857142857143 1.300208 1.8564 3.0914965714285714 1.8564 5.048665142857143s-0.5562142857142857 3.748457142857143 -1.8564 5.048642857142857c-0.6463971428571429 0.6463971428571429 -1.4141400000000002 1.1089 -2.2633 1.4105742857142858l0.00011142857142857143 3.544357142857143c3.82356 0.022322857142857144 7.774185714285714 0.13902571428571428 11.262085714285714 0.7489114285714286 3.0750571428571427 0.5376428571428571 5.441800000000001 2.9154914285714284 6.0888285714285715 5.911397142857143 0.6221428571428572 2.882694285714286 0.6221428571428572 5.283125714285714 0.6221428571428572 9.648117142857144v0.32340285714285716c0 4.364991428571429 0 6.765534285714286 -0.6221428571428572 9.648191428571428 -0.6470285714285714 2.995942857142857 -3.0137714285714288 5.373828571428572 -6.0888285714285715 5.9112857142857145 -4.3136600000000005 0.7543714285714286 -9.334928571428572 0.7543714285714286 -13.948442857142858 0.7543714285714286h-0.1982314285714286c-4.6135142857142855 0 -9.634782857142858 0 -13.948591428571428 -0.7543714285714286 -3.074945714285714 -0.5374571428571429 -5.441800000000001 -2.9153428571428575 -6.088605714285714 -5.9112857142857145 -0.6223285714285715 -2.882657142857143 -0.6222914285714286 -5.283200000000001 -0.6222171428571429 -9.64808v-0.3236257142857143c-0.0000742857142857143 -4.364917142857143 -0.00011142857142857143 -6.7653485714285715 0.6222171428571429 -9.648005714285715 0.6468057142857143 -2.9959057142857146 3.0136600000000002 -5.373754285714286 6.088605714285714 -5.911397142857143 3.487937142857143 -0.6098485714285714 7.43834 -0.7265885714285714 11.26175142857143 -0.7489114285714286l-0.00011142857142857143 -3.5445800000000003c-0.8488628571428571 -0.3017114285714286 -1.6163828571428573 -0.76414 -2.262594285714286 -1.4103514285714287 -1.3001857142857143 -1.3001857142857143 -1.8564 -3.091474285714286 -1.8564 -5.048642857142857 0 -1.9571685714285716 0.5562142857142857 -3.748457142857143 1.8564 -5.048665142857143ZM18.49406 25.755934285714286c1.2820971428571428 0 2.3214285714285716 1.0393314285714286 2.3214285714285716 2.3214285714285716l0 2.237262857142857c0 1.28206 -1.0393685714285716 2.3214285714285716 -2.321465714285714 2.3213914285714288 -1.28206 0 -2.3213914285714288 -1.0393314285714286 -2.3213914285714288 -2.3214285714285716l0 -2.2372257142857146c0 -1.2820971428571428 1.0393314285714286 -2.3214285714285716 2.3214285714285716 -2.3214285714285716Zm17.33316 2.3214285714285716c0.00003714285714285715 -1.2820971428571428 -1.0393314285714286 -2.3214285714285716 -2.3213914285714288 -2.3214285714285716 -1.2820971428571428 0 -2.321465714285714 1.0393314285714286 -2.321465714285714 2.3214285714285716l0 2.2372257142857146c0 1.2820971428571428 1.0393314285714286 2.3214285714285716 2.3214285714285716 2.3214285714285716 1.2820971428571428 0.00003714285714285715 2.3214285714285716 -1.0393314285714286 2.3214285714285716 -2.3213914285714288l0 -2.237262857142857ZM20.729205714285715 37.74791428571429c-0.6267857142857144 -1.1013600000000001 -2.0241000000000002 -1.4979342857142857 -3.137457142857143 -0.88452 -1.12294 0.6185771428571428 -1.531697142857143 2.030377142857143 -0.9130085714285715 3.153577142857143l2.0332371428571427 -1.1202285714285714c-2.0332371428571427 1.1202285714285714 -2.0326057142857143 1.1213428571428572 -2.032011428571429 1.122457142857143l0.0013 0.0022285714285714283 0.0027485714285714288 0.004828571428571429 0.0061285714285714285 0.011142857142857144 0.014708571428571428 0.026000000000000002 0.03970571428571429 0.06760000000000001c0.03108857142857143 0.051628571428571426 0.07146285714285715 0.117 0.12160571428571429 0.19351428571428572 0.10013714285714287 0.15302857142857143 0.23994285714285718 0.35285714285714287 0.42264857142857143 0.5831428571428572 0.3643714285714286 0.4598285714285714 0.9069914285714286 1.0515142857142858 1.6548257142857143 1.6376285714285714 1.5195514285714284 1.1911714285714285 3.8355942857142855 2.3162285714285717 7.056697142857143 2.3162285714285717 3.2211028571428573 0 5.537145714285714 -1.125057142857143 7.0567342857142865 -2.3162285714285717 0.7477971428571429 -0.5861142857142857 1.290417142857143 -1.1778 1.6547885714285715 -1.6376285714285714 0.18270571428571428 -0.2302857142857143 0.3225114285714286 -0.4301142857142857 0.42264857142857143 -0.5831428571428572 0.05014285714285714 -0.07651428571428572 0.09055428571428571 -0.14188571428571428 0.12160571428571429 -0.19351428571428572l0.03970571428571429 -0.06760000000000001 0.014745714285714284 -0.026000000000000002 0.006091428571428571 -0.011142857142857144 0.0027485714285714288 -0.004828571428571429 0.0013 -0.0022285714285714283c0.0006314285714285715 -0.0011142857142857141 0.001262857142857143 -0.0022285714285714283 -2.0313428571428576 -1.1220857142857144l2.0326057142857143 1.1198571428571429c0.6186514285714286 -1.1232 0.2098942857142857 -2.535 -0.9130457142857143 -3.153577142857143 -1.11332 -0.6134142857142857 -2.510671428571429 -0.21684 -3.13742 0.88452l-0.021765714285714284 0.034171428571428575c-0.03027142857142857 0.04605714285714286 -0.08858571428571428 0.1311142857142857 -0.17657714285714285 0.24217142857142857 -0.17706 0.22322857142857144 -0.4663285714285714 0.542657142857143 -0.8805085714285714 0.8672857142857143 -0.8043657142857144 0.6303142857142857 -2.132482857142857 1.3271142857142857 -4.192314285714286 1.3271142857142857s-3.3879114285714285 -0.6968 -4.192314285714286 -1.3271142857142857c-0.41414285714285715 -0.32462857142857143 -0.7034485714285714 -0.6440571428571429 -0.8805085714285714 -0.8672857142857143 -0.08799142857142857 -0.11105714285714285 -0.14626857142857141 -0.1961142857142857 -0.17654000000000003 -0.24217142857142857l-0.021765714285714284 -0.034171428571428575Z" clip-rule="evenodd" stroke-width="3.7143"></path></g></svg>