<svg xmlns="http://www.w3.org/2000/svg" fill="none" viewBox="0 0 52 52" id="Erlenmeyer-Flask--Streamline-Flex" height="52" width="52"><desc>Erlenmeyer Flask Streamline Icon: https://streamlinehq.com</desc><g id="erlenmeyer-flask--science-experiment-lab-flask-chemistry-solution"><path id="Union" fill="#000000" fill-rule="evenodd" d="M12.967537142857143 7.267148571428572h2.206434285714286v7.0279114285714295c0 0.8214514285714286 -0.21791714285714286 1.628157142857143 -0.63154 2.3378828571428576L3.4284565714285717 35.702160000000006C0.9906928571428572 39.88474285714286 2.906978285714286 45.25485714285714 7.441980000000001 46.949685714285714c11.967911428571428 4.471628571428571 25.14809142857143 4.471628571428571 37.116077142857144 0 4.534771428571429 -1.6948285714285714 6.4513428571428575 -7.064942857142857 4.013285714285715 -11.247525714285715L37.457457142857145 16.632942857142858c-0.41354857142857143 -0.7097257142857143 -0.6315028571428571 -1.5164314285714287 -0.6315028571428571 -2.3378828571428576V7.267148571428572h2.2067314285714286c1.538457142857143 0 2.7857142857142856 -1.2471828571428574 2.7857142857142856 -2.7857142857142856 0 -1.5384980000000001 -1.2472571428571428 -2.785703142857143 -2.7857142857142856 -2.785703142857143H12.967537142857143c-1.5384942857142858 0 -2.7857142857142856 1.247205142857143 -2.7857142857142856 2.785703142857143 0 1.5385314285714284 1.24722 2.7857142857142856 2.7857142857142856 2.7857142857142856ZM20.7454 14.29506V7.267148571428572h10.509125714285714v7.0279114285714295c0 1.8071485714285713 0.47947714285714294 3.581982857142857 1.3894400000000002 5.14332l2.288557142857143 3.9266314285714286c-5.81256 0.5788714285714286 -11.424622857142857 0.5135742857142858 -17.736494285714286 -0.22062857142857145l2.159931428571429 -3.7060028571428574c0.91 -1.561337142857143 1.3894400000000002 -3.336171428571429 1.3894400000000002 -5.14332Z" clip-rule="evenodd" stroke-width="3.7143"></path></g></svg>