<svg xmlns="http://www.w3.org/2000/svg" fill="none" viewBox="0 0 52 52" id="Copy-2--Streamline-Flex" height="52" width="52"><desc>Copy 2 Streamline Icon: https://streamlinehq.com</desc><g id="copy-2"><path id="Union" fill="#000000" fill-rule="evenodd" d="M34.02285714285714 1.1662857142857144a181.62857142857143 181.62857142857143 0 0 0 -28.04657142857143 0 5.482285714285714 5.482285714285714 0 0 0 -5.058857142857144 5.051428571428572 180.57742857142856 180.57742857142856 0 0 0 0 27.946285714285715 5.482285714285714 5.482285714285714 0 0 0 5.058857142857144 5.051428571428572 1.7271428571428573 1.7271428571428573 0 0 0 1.846 -1.782857142857143 185.35028571428572 185.35028571428572 0 0 1 0.468 -19.94571428571429 10.125142857142857 10.125142857142857 0 0 1 9.334 -9.337714285714286 186.394 186.394 0 0 1 20.046000000000003 -0.4642857142857143 1.3668571428571428 1.3668571428571428 0 0 0 1.4114285714285715 -1.4634285714285715A5.482285714285714 5.482285714285714 0 0 0 34.02285714285714 1.1662857142857144ZM17.97714285714286 12.780857142857142a181.62857142857143 181.62857142857143 0 0 1 28.04657142857143 0 5.482285714285714 5.482285714285714 0 0 1 5.058857142857144 5.051428571428572 180.6034285714286 180.6034285714286 0 0 1 0 27.946285714285715 5.482285714285714 5.482285714285714 0 0 1 -5.058857142857144 5.051428571428572 181.5914285714286 181.5914285714286 0 0 1 -28.04657142857143 0 5.482285714285714 5.482285714285714 0 0 1 -5.058857142857144 -5.051428571428572 180.57742857142856 180.57742857142856 0 0 1 0 -27.94257142857143A5.482285714285714 5.482285714285714 0 0 1 17.97714285714286 12.777142857142858Zm6.191714285714286 21.346a2.3214285714285716 2.3214285714285716 0 0 1 0 -4.642857142857143H29.677142857142858V23.975714285714286a2.3214285714285716 2.3214285714285716 0 0 1 4.642857142857143 0v5.508285714285715h5.5120000000000005a2.3214285714285716 2.3214285714285716 0 1 1 0 4.642857142857143H34.32v5.508285714285715a2.3214285714285716 2.3214285714285716 0 0 1 -4.642857142857143 0V34.12685714285715H24.168857142857142Z" clip-rule="evenodd" stroke-width="3.7143"></path></g></svg>