<svg xmlns="http://www.w3.org/2000/svg" fill="none" viewBox="0 0 52 52" id="User-Circle-Single--Streamline-Flex" height="52" width="52"><desc>User Circle Single Streamline Icon: https://streamlinehq.com</desc><g id="user-circle-single--circle-geometric-human-person-single-user"><path id="Subtract" fill="#000000" fill-rule="evenodd" d="M26 52c16.64 0 26 -9.360000000000001 26 -26s-9.360000000000001 -26 -26 -26 -26 9.360000000000001 -26 26 9.360000000000001 26 26 26Zm13.50737142857143 -9.178742857142858c-0.9456571428571429 -1.7620571428571428 -2.2341428571428574 -3.3346857142857145 -3.804988571428572 -4.618342857142857 -2.738097142857143 -2.2381542857142858 -6.1657142857142855 -3.4607114285714284 -9.702085714285714 -3.4607114285714284s-6.963988571428572 1.222557142857143 -9.702085714285714 3.4607114285714284c-1.5707342857142856 1.283657142857143 -2.8591457142857144 2.8562857142857143 -3.8051000000000004 4.618342857142857 3.0917342857142858 2.222257142857143 7.488557142857143 3.6073142857142857 13.507297142857142 3.6073142857142857 6.018628571428572 0 10.415377142857142 -1.385057142857143 13.506962857142856 -3.6073142857142857ZM34.74747714285714 19.56979142857143c0 5.600028571428572 -3.149974285714286 8.750002857142858 -8.750002857142858 8.750002857142858 -5.599991428571428 0 -8.750002857142858 -3.149974285714286 -8.750002857142858 -8.750002857142858 0 -5.599991428571428 3.1500114285714287 -8.750002857142858 8.750002857142858 -8.750002857142858 5.600028571428572 0 8.750002857142858 3.1500114285714287 8.750002857142858 8.750002857142858Z" clip-rule="evenodd" stroke-width="3.7143"></path></g></svg>